0
SECTION
2
HEADER
9
$INSUNITS
70
4
9
$ACADVER
1
AC1014
9
$HANDSEED
5
FFFF
0
ENDSEC
0
SECTION
2
TABLES
0
TABLE
2
VPORT
5
8
100
AcDbSymbolTable
0
ENDTAB
0
TABLE
2
LTYPE
5
5
100
AcDbSymbolTable
0
LTYPE
5
14
100
AcDbSymbolTableRecord
100
AcDbLinetypeTableRecord
2
BYBLOCK
70
0
0
LTYPE
5
15
100
AcDbSymbolTableRecord
100
AcDbLinetypeTableRecord
2
BYLAYER
70
0
0
ENDTAB
0
TABLE
2
LAYER
5
2
100
AcDbSymbolTable
70
2
0
LAYER
5
50
100
AcDbSymbolTableRecord
100
AcDbLayerTableRecord
2
0
70
0
6
CONTINUOUS
0
ENDTAB
0
TABLE
2
STYLE
5
3
100
AcDbSymbolTable
70
1
0
STYLE
5
11
100
AcDbSymbolTableRecord
100
AcDbTextStyleTableRecord
2
STANDARD
70
0
0
ENDTAB
0
TABLE
2
VIEW
5
6
100
AcDbSymbolTable
70
0
0
ENDTAB
0
TABLE
2
UCS
5
7
100
AcDbSymbolTable
70
0
0
ENDTAB
0
TABLE
2
APPID
5
9
100
AcDbSymbolTable
70
2
0
APPID
5
12
100
AcDbSymbolTableRecord
100
AcDbRegAppTableRecord
2
ACAD
70
0
0
ENDTAB
0
TABLE
2
DIMSTYLE
5
A
100
AcDbSymbolTable
70
1
0
ENDTAB
0
TABLE
2
BLOCK_RECORD
5
1
100
AcDbSymbolTable
70
1
0
BLOCK_RECORD
5
1F
100
AcDbSymbolTableRecord
100
AcDbBlockTableRecord
2
*MODEL_SPACE
0
BLOCK_RECORD
5
1B
100
AcDbSymbolTableRecord
100
AcDbBlockTableRecord
2
*PAPER_SPACE
0
ENDTAB
0
ENDSEC
0
SECTION
2
BLOCKS
0
BLOCK
5
20
100
AcDbEntity
100
AcDbBlockBegin
2
*MODEL_SPACE
0
ENDBLK
5
21
100
AcDbEntity
100
AcDbBlockEnd
0
BLOCK
5
1C
100
AcDbEntity
100
AcDbBlockBegin
2
*PAPER_SPACE
0
ENDBLK
5
1D
100
AcDbEntity
100
AcDbBlockEnd
0
ENDSEC
0
SECTION
2
ENTITIES
0
SPLINE
5
100
100
AcDbEntity
8
0
100
AcDbSpline
70
4
71
5
72
256
73
250
74
0
42
0.000000001
43
0.0000000001
44
0.0000000001
40
0
40
0
40
0
40
0
40
0
40
0
40
0.0040816326530612249
40
0.0081632653061224497
40
0.012244897959183675
40
0.016326530612244899
40
0.020408163265306124
40
0.024489795918367349
40
0.028571428571428574
40
0.032653061224489799
40
0.036734693877551024
40
0.040816326530612249
40
0.044897959183673473
40
0.048979591836734698
40
0.053061224489795923
40
0.057142857142857148
40
0.061224489795918373
40
0.065306122448979598
40
0.069387755102040816
40
0.073469387755102034
40
0.077551020408163251
40
0.081632653061224469
40
0.085714285714285687
40
0.089795918367346905
40
0.093877551020408123
40
0.097959183673469341
40
0.10204081632653056
40
0.10612244897959178
40
0.11020408163265299
40
0.11428571428571421
40
0.11836734693877543
40
0.12244897959183665
40
0.12653061224489787
40
0.13061224489795908
40
0.1346938775510203
40
0.13877551020408152
40
0.14285714285714274
40
0.14693877551020396
40
0.15102040816326517
40
0.15510204081632639
40
0.15918367346938761
40
0.16326530612244883
40
0.16734693877551005
40
0.17142857142857126
40
0.17551020408163248
40
0.1795918367346937
40
0.18367346938775492
40
0.18775510204081614
40
0.19183673469387735
40
0.19591836734693857
40
0.19999999999999979
40
0.20408163265306101
40
0.20816326530612222
40
0.21224489795918344
40
0.21632653061224466
40
0.22040816326530588
40
0.2244897959183671
40
0.22857142857142831
40
0.23265306122448953
40
0.23673469387755075
40
0.24081632653061197
40
0.24489795918367319
40
0.2489795918367344
40
0.25306122448979562
40
0.25714285714285684
40
0.26122448979591806
40
0.26530612244897928
40
0.26938775510204049
40
0.27346938775510171
40
0.27755102040816293
40
0.28163265306122415
40
0.28571428571428537
40
0.28979591836734658
40
0.2938775510204078
40
0.29795918367346902
40
0.30204081632653024
40
0.30612244897959145
40
0.31020408163265267
40
0.31428571428571389
40
0.31836734693877511
40
0.32244897959183633
40
0.32653061224489754
40
0.33061224489795876
40
0.33469387755101998
40
0.3387755102040812
40
0.34285714285714242
40
0.34693877551020363
40
0.35102040816326485
40
0.35510204081632607
40
0.35918367346938729
40
0.36326530612244851
40
0.36734693877550972
40
0.37142857142857094
40
0.37551020408163216
40
0.37959183673469338
40
0.3836734693877546
40
0.38775510204081581
40
0.39183673469387703
40
0.39591836734693825
40
0.39999999999999947
40
0.40408163265306069
40
0.4081632653061219
40
0.41224489795918312
40
0.41632653061224434
40
0.42040816326530556
40
0.42448979591836677
40
0.42857142857142799
40
0.43265306122448921
40
0.43673469387755043
40
0.44081632653061165
40
0.44489795918367286
40
0.44897959183673408
40
0.4530612244897953
40
0.45714285714285652
40
0.46122448979591774
40
0.46530612244897895
40
0.46938775510204017
40
0.47346938775510139
40
0.47755102040816261
40
0.48163265306122383
40
0.48571428571428504
40
0.48979591836734626
40
0.49387755102040748
40
0.4979591836734687
40
0.50204081632652997
40
0.50612244897959124
40
0.51020408163265252
40
0.51428571428571379
40
0.51836734693877506
40
0.52244897959183634
40
0.52653061224489761
40
0.53061224489795888
40
0.53469387755102016
40
0.53877551020408143
40
0.5428571428571427
40
0.54693877551020398
40
0.55102040816326525
40
0.55510204081632653
40
0.5591836734693878
40
0.56326530612244907
40
0.56734693877551035
40
0.57142857142857162
40
0.57551020408163289
40
0.57959183673469417
40
0.58367346938775544
40
0.58775510204081671
40
0.59183673469387799
40
0.59591836734693926
40
0.60000000000000053
40
0.60408163265306181
40
0.60816326530612308
40
0.61224489795918435
40
0.61632653061224563
40
0.6204081632653069
40
0.62448979591836817
40
0.62857142857142945
40
0.63265306122449072
40
0.63673469387755199
40
0.64081632653061327
40
0.64489795918367454
40
0.64897959183673581
40
0.65306122448979709
40
0.65714285714285836
40
0.66122448979591963
40
0.66530612244898091
40
0.66938775510204218
40
0.67346938775510345
40
0.67755102040816473
40
0.681632653061226
40
0.68571428571428727
40
0.68979591836734855
40
0.69387755102040982
40
0.6979591836734711
40
0.70204081632653237
40
0.70612244897959364
40
0.71020408163265492
40
0.71428571428571619
40
0.71836734693877746
40
0.72244897959183874
40
0.72653061224490001
40
0.73061224489796128
40
0.73469387755102256
40
0.73877551020408383
40
0.7428571428571451
40
0.74693877551020638
40
0.75102040816326765
40
0.75510204081632892
40
0.7591836734693902
40
0.76326530612245147
40
0.76734693877551274
40
0.77142857142857402
40
0.77551020408163529
40
0.77959183673469656
40
0.78367346938775784
40
0.78775510204081911
40
0.79183673469388038
40
0.79591836734694166
40
0.80000000000000293
40
0.8040816326530642
40
0.80816326530612548
40
0.81224489795918675
40
0.81632653061224802
40
0.8204081632653093
40
0.82448979591837057
40
0.82857142857143185
40
0.83265306122449312
40
0.83673469387755439
40
0.84081632653061567
40
0.84489795918367694
40
0.84897959183673821
40
0.85306122448979949
40
0.85714285714286076
40
0.86122448979592203
40
0.86530612244898331
40
0.86938775510204458
40
0.87346938775510585
40
0.87755102040816713
40
0.8816326530612284
40
0.88571428571428967
40
0.88979591836735095
40
0.89387755102041222
40
0.89795918367347349
40
0.90204081632653477
40
0.90612244897959604
40
0.91020408163265731
40
0.91428571428571859
40
0.91836734693877986
40
0.92244897959184113
40
0.92653061224490241
40
0.93061224489796368
40
0.93469387755102495
40
0.93877551020408623
40
0.9428571428571475
40
0.94693877551020877
40
0.95102040816327005
40
0.95510204081633132
40
0.95918367346939259
40
0.96326530612245387
40
0.96734693877551514
40
0.97142857142857642
40
0.97551020408163769
40
0.97959183673469896
40
0.98367346938776024
40
0.98775510204082151
40
0.99183673469388278
40
0.99591836734694406
40
1
40
1
40
1
40
1
40
1
40
1
41
1
41
1
41
1
41
1
41
1
41
1
41
1
41
1
41
1
41
1
41
1
41
1
41
1
41
1
41
1
41
1
41
1
41
1
41
1
41
1
41
1
41
1
41
1
41
1
41
1
41
1
41
1
41
1
41
1
41
1
41
1
41
1
41
1
41
1
41
1
41
1
41
1
41
1
41
1
41
1
41
1
41
1
41
1
41
1
41
1
41
1
41
1
41
1
41
1
41
1
41
1
41
1
41
1
41
1
41
1
41
1
41
1
41
1
41
1
41
1
41
1
41
1
41
1
41
1
41
1
41
1
41
1
41
1
41
1
41
1
41
1
41
1
41
1
41
1
41
1
41
1
41
1
41
1
41
1
41
1
41
1
41
1
41
1
41
1
41
1
41
1
41
1
41
1
41
1
41
1
41
1
41
1
41
1
41
1
41
1
41
1
41
1
41
1
41
1
41
1
41
1
41
1
41
1
41
1
41
1
41
1
41
1
41
1
41
1
41
1
41
1
41
1
41
1
41
1
41
1
41
1
41
1
41
1
41
1
41
1
41
1
41
1
41
1
41
1
41
1
41
1
41
1
41
1
41
1
41
1
41
1
41
1
41
1
41
1
41
1
41
1
41
1
41
1
41
1
41
1
41
1
41
1
41
1
41
1
41
1
41
1
41
1
41
1
41
1
41
1
41
1
41
1
41
1
41
1
41
1
41
1
41
1
41
1
41
1
41
1
41
1
41
1
41
1
41
1
41
1
41
1
41
1
41
1
41
1
41
1
41
1
41
1
41
1
41
1
41
1
41
1
41
1
41
1
41
1
41
1
41
1
41
1
41
1
41
1
41
1
41
1
41
1
41
1
41
1
41
1
41
1
41
1
41
1
41
1
41
1
41
1
41
1
41
1
41
1
41
1
41
1
41
1
41
1
41
1
41
1
41
1
41
1
41
1
41
1
41
1
41
1
41
1
41
1
41
1
41
1
41
1
41
1
41
1
41
1
41
1
41
1
41
1
41
1
41
1
41
1
41
1
41
1
41
1
41
1
41
1
41
1
41
1
41
1
41
1
41
1
41
1
41
1
41
1
41
1
41
1
41
1
41
1
41
1
41
1
41
1
41
1
41
1
41
1
41
1
41
1
10
-59.500000886619091
20
-15.000000223517418
30
0
10
-59.508135439882615
20
-14.697242608855499
30
0
10
-59.523248814133666
20
-14.092629841170726
30
0
10
-59.542451677400727
20
-13.188418074291679
30
0
10
-59.561120921938198
20
-11.988217303574388
30
0
10
-59.572939839412868
20
-10.496995701118319
30
0
10
-59.573363160852068
20
-9.014815525316223
30
0
10
-59.562636028522782
20
-7.5416997305373057
30
0
10
-59.541169058983421
20
-6.0776857575465035
30
0
10
-59.509577687988042
20
-4.6228284936728308
30
0
10
-59.468728593450003
20
-3.1772047154537524
30
0
10
-59.419769621625349
20
-1.7409140673879719
30
0
10
-59.36420096531451
20
-0.31408869292410224
30
0
10
-59.303756904130935
20
1.1031369158655644
30
0
10
-59.240186846916529
20
2.510677302742895
30
0
10
-59.175068798486308
20
3.9085404608374548
30
0
10
-59.1096069239629
20
5.2968759692141703
30
0
10
-59.044441525120931
20
6.6760196525842037
30
0
10
-58.97944054295963
20
8.0465441607610728
30
0
10
-58.913529608368947
20
9.4092966940657767
30
0
10
-58.8444267601541
20
10.765468776146658
30
0
10
-58.768880270690758
20
12.116496615532631
30
0
10
-58.683098942217875
20
13.463896650258123
30
0
10
-58.583120177937637
20
14.809122008093514
30
0
10
-58.465202885639911
20
16.153410675245606
30
0
10
-58.326212236163641
20
17.497636206049805
30
0
10
-58.164002171231289
20
18.842159623188365
30
0
10
-57.977812791509685
20
20.186675237680415
30
0
10
-57.76862232850177
20
21.53007465554662
30
0
10
-57.53855269657528
20
22.870689614340147
30
0
10
-57.29031928347495
20
24.206516913612745
30
0
10
-57.026659053103792
20
25.535452485938357
30
0
10
-56.749779457200056
20
26.855516036605653
30
0
10
-56.460771526027443
20
28.165092563348235
30
0
10
-56.159100890757713
20
29.463136729860299
30
0
10
-55.841912243162497
20
30.749466305230335
30
0
10
-55.503953428925513
20
32.024759576514882
30
0
10
-55.138462923023674
20
33.290092317610288
30
0
10
-54.737828975322898
20
34.546584064105453
30
0
10
-54.294343661989011
20
35.794998477288487
30
0
10
-53.80090956658276
20
37.035367550682132
30
0
10
-53.251782564721175
20
38.266595648072077
30
0
10
-52.64326224201195
20
39.486095306251954
30
0
10
-51.97450394781697
20
40.689347131247125
30
0
10
-51.246967053963473
20
41.870316021057135
30
0
10
-50.46371072384855
20
43.021963486775128
30
0
10
-49.628741931149911
20
44.136726579776152
30
0
10
-48.746346631844872
20
45.207008677318896
30
0
10
-47.820416562290127
20
46.225670113134505
30
0
10
-46.853805066083176
20
47.186507369135818
30
0
10
-45.847605545785974
20
48.084764808612341
30
0
10
-44.800652801601892
20
48.917552067554162
30
0
10
-43.710748664675741
20
49.683536036808263
30
0
10
-42.575711068219739
20
50.382704088942234
30
0
10
-41.394509874646218
20
51.01609851043743
30
0
10
-40.168322576747649
20
51.585567010988562
30
0
10
-38.901725124434691
20
52.093497855694288
30
0
10
-37.603589965334756
20
52.542581738162355
30
0
10
-36.288696783924827
20
52.935512170751203
30
0
10
-34.97650680465442
20
53.274928509488618
30
0
10
-33.687792941118524
20
53.563543133779483
30
0
10
-32.441856147633658
20
53.80421660284717
30
0
10
-31.253576526578097
20
54.000051460762322
30
0
10
-30.130359725237106
20
54.154484464148737
30
0
10
-29.06953610582282
20
54.271364626971213
30
0
10
-28.05456530449348
20
54.355073842452377
30
0
10
-27.055328473888729
20
54.410498877846976
30
0
10
-26.034455160996618
20
54.442783438846106
30
0
10
-24.952157414385525
20
54.457134274707158
30
0
10
-23.77175197156156
20
54.458603203996446
30
0
10
-22.464691979630565
20
54.451884620456319
30
0
10
-21.016279649227371
20
54.441093903259528
30
0
10
-19.429676063504527
20
54.429591285667343
30
0
10
-17.721811325848613
20
54.420019416656167
30
0
10
-15.920357990470372
20
54.414313016588032
30
0
10
-14.060288224727939
20
54.413719167446132
30
0
10
-12.180620755143927
20
54.418813239537862
30
0
10
-10.321060015648406
20
54.429516046984681
30
0
10
-8.5187440442886277
20
54.445111718450796
30
0
10
-6.8048009728232826
20
54.464262114507854
30
0
10
-5.2013246674304794
20
54.485029831190026
30
0
10
-3.7173401074026073
20
54.504879814945966
30
0
10
-2.3483024530571579
20
54.5207559552357
30
0
10
-1.0798885398729134
20
54.529248362718548
30
0
10
0.10929820377649861
20
54.526738337801952
30
0
10
1.2446087412173354
20
54.509550380026141
30
0
10
2.3523463164681662
20
54.474105758042484
30
0
10
3.4568560685121081
20
54.41706473750628
30
0
10
4.5772332349913123
20
54.335499446721698
30
0
10
5.7252845202078086
20
54.226971648626829
30
0
10
6.9070444720547108
20
54.089344601544276
30
0
10
8.1236474035213462
20
53.920641889001011
30
0
10
9.3724451346714375
20
53.718890715123209
30
0
10
10.648038839542863
20
53.481964941820593
30
0
10
11.943302072806315
20
53.207444290849757
30
0
10
13.250518075899805
20
52.892427391056614
30
0
10
14.562080027394206
20
52.533501858865151
30
0
10
15.870469920995822
20
52.126968963177035
30
0
10
17.16840548577558
20
51.669008655541873
30
0
10
18.448919993085461
20
51.155869483038472
30
0
10
19.705469421843958
20
50.584045860347608
30
0
10
20.932031092720621
20
49.950465459255433
30
0
10
22.123198544065012
20
49.252661379162163
30
0
10
23.27429715073141
20
48.488978690303966
30
0
10
24.381389012546627
20
47.658618004927291
30
0
10
25.441225708659001
20
46.761604254745215
30
0
10
26.451217783051991
20
45.798778829733855
30
0
10
27.409397217318254
20
44.771783097205081
30
0
10
28.314383295598823
20
43.683043422684335
30
0
10
29.165346367323217
20
42.535760968636147
30
0
10
29.961974264209864
20
41.333886986351295
30
0
10
30.704433211349151
20
40.082137459394936
30
0
10
31.39337065619425
20
38.785697299935023
30
0
10
32.029926570442719
20
37.449862447023051
30
0
10
32.615741342654324
20
36.079705739319323
30
0
10
33.15296635667066
20
34.679727796227183
30
0
10
33.644270719778106
20
33.253525818402039
30
0
10
34.092856117284775
20
31.803427795494997
30
0
10
34.502453266001744
20
30.330204050361878
30
0
10
34.877363146329344
20
28.832591478531654
30
0
10
35.222340807714573
20
27.307476172292212
30
0
10
35.542290623775138
20
25.750864819371728
30
0
10
35.84200979456454
20
24.158653777992942
30
0
10
36.125912741875361
20
22.527479268060464
30
0
10
36.397762479442505
20
20.855535420024065
30
0
10
36.660401629315558
20
19.143400465177002
30
0
10
36.915477191527735
20
17.394873246733095
30
0
10
37.163182547874229
20
15.617774024902015
30
0
10
37.401956939885331
20
13.824836392017623
30
0
10
37.628304357328737
20
12.034341928349125
30
0
10
37.837659615705633
20
10.268478016669821
30
0
10
38.025167068035188
20
8.5518941159245525
30
0
10
38.186485344573136
20
6.910181602363588
30
0
10
38.318597647018393
20
5.3683883260585494
30
0
10
38.420581357712621
20
3.9495134456351066
30
0
10
38.494484624481828
20
2.6730216628353705
30
0
10
38.545949294417227
20
1.5533228731847279
30
0
10
38.58544142770932
20
0.59832829058553194
30
0
10
38.627711806328819
20
-0.19221921159257663
30
0
10
38.682410524741933
20
-0.8296530317824341
30
0
10
38.746073411397994
20
-1.3390211052040009
30
0
10
38.79317776167327
20
-1.7620405245466164
30
0
10
38.768215895002967
20
-2.1596331359168661
30
0
10
38.621342166821485
20
-2.5840104651896989
30
0
10
38.364196856436749
20
-3.037859459154435
30
0
10
38.064533719411727
20
-3.4727878753568273
30
0
10
37.782001679852648
20
-3.8287822605937678
30
0
10
37.501102052391829
20
-4.069672621622094
30
0
10
37.143935497654837
20
-4.1927601656577558
30
0
10
36.656712581600218
20
-4.2163057927762235
30
0
10
36.04727163575307
20
-4.1731566136449878
30
0
10
35.352544195297128
20
-4.0992669154990447
30
0
10
34.61754012036296
20
-4.0240392198572481
30
0
10
33.869066251643567
20
-3.9594782467768654
30
0
10
33.120499011236227
20
-3.905403091407798
30
0
10
32.377035608921354
20
-3.8553565847354836
30
0
10
31.640483141135359
20
-3.8018083597743333
30
0
10
30.915077746731811
20
-3.7427950334601539
30
0
10
30.208008920849316
20
-3.6813916944430853
30
0
10
29.527849268978642
20
-3.6224635329024766
30
0
10
28.883698299035188
20
-3.5701690916374549
30
0
10
28.283944103929048
20
-3.5254433068687536
30
0
10
27.735647633788169
20
-3.4826324886345974
30
0
10
27.244178186309263
20
-3.4274040971163489
30
0
10
26.812676184669165
20
-3.3310894978392849
30
0
10
26.441890401059332
20
-3.1564540162616068
30
0
10
26.130463826087869
20
-2.8815599020389104
30
0
10
25.875336865528034
20
-2.5241716285539177
30
0
10
25.672484623690565
20
-2.123127077528514
30
0
10
25.520002285243283
20
-1.7045776554208472
30
0
10
25.414755379819837
20
-1.268825005841574
30
0
10
25.340902644682565
20
-0.80997943134859407
30
0
10
25.253820056711589
20
-0.33118545397617716
30
0
10
25.098149495125199
20
0.14979667752874096
30
0
10
24.837843864848583
20
0.60160789890308042
30
0
10
24.486468907604902
20
0.97675910339056304
30
0
10
24.086401443610313
20
1.2281329655471493
30
0
10
23.67899430639406
20
1.3292309052909577
30
0
10
23.281358996209963
20
1.2891811905528519
30
0
10
22.903351377321833
20
1.1246955061906916
30
0
10
22.567237057313942
20
0.82711356822736026
30
0
10
22.302139481316949
20
0.36962454517205101
30
0
10
22.128088153301476
20
-0.26925924545418778
30
0
10
22.044580924808482
20
-1.0889997387123038
30
0
10
22.036584339557251
20
-2.0725834277325497
30
0
10
22.079969759856333
20
-3.1915558798006627
30
0
10
22.147324145750943
20
-4.4113429334399985
30
0
10
22.213160946184832
20
-5.6961280460556836
30
0
10
22.260484560022334
20
-7.0147227713285556
30
0
10
22.282185605806561
20
-8.3426477169287576
30
0
10
22.278129884623354
20
-9.6610499599945641
30
0
10
22.253458477614689
20
-10.95652156063267
30
0
10
22.21641318302748
20
-12.220540072180853
30
0
10
22.176315402276373
20
-13.449091647695127
30
0
10
22.141596504956091
20
-14.642169413446215
30
0
10
22.117522819882641
20
-15.803438702896436
30
0
10
22.104964746077769
20
-16.939468161789012
30
0
10
22.101903802490796
20
-18.057889166334025
30
0
10
22.104423030284622
20
-19.165747433563279
30
0
10
22.10789292322896
20
-20.267798965518828
30
0
10
22.108094834349462
20
-21.364782660080515
30
0
10
22.102321708761981
20
-22.451812948355673
30
0
10
22.090620708362874
20
-23.516424518305804
30
0
10
22.074951382299929
20
-24.541453769612996
30
0
10
22.058223845322402
20
-25.508272942644794
30
0
10
22.043254935689976
20
-26.400034445465863
30
0
10
22.032042804155182
20
-27.204600850518862
30
0
10
22.024211202353442
20
-27.918358922339131
30
0
10
22.018315581253777
20
-28.547161608404728
30
0
10
22.020960353272741
20
-29.101765557468909
30
0
10
22.051856597700201
20
-29.594153079633191
30
0
10
22.156074589885129
20
-30.034183682222491
30
0
10
22.383139696156938
20
-30.422187986950746
30
0
10
22.749918315959412
20
-30.738778448720051
30
0
10
23.211097546534422
20
-30.936941057157576
30
0
10
23.693823742183014
20
-30.967277965268583
30
0
10
24.137735260448405
20
-30.806587948667371
30
0
10
24.516008877961433
20
-30.473650013172836
30
0
10
24.819515761684062
20
-30.01458016027393
30
0
10
25.045133546473437
20
-29.498461937077177
30
0
10
25.196486806937596
20
-28.994686810452841
30
0
10
25.292344921395422
20
-28.548633781030436
30
0
10
25.379027494230051
20
-28.144907604083294
30
0
10
25.514514096019631
20
-27.728213479545371
30
0
10
25.729367036390627
20
-27.268512262979783
30
0
10
25.99456998665503
20
-26.813838335924892
30
0
10
26.272700718507043
20
-26.441821343458468
30
0
10
26.579242020333474
20
-26.202420431044708
30
0
10
27.021487956647128
20
-26.076135263726247
30
0
10
27.721445735699636
20
-26.011599375612931
30
0
10
28.742313705767767
20
-25.95775099139129
30
0
10
30.039531181732116
20
-25.888849594211266
30
0
10
31.504325572864534
20
-25.795739245127649
30
0
10
32.991111204905494
20
-25.683334621360267
30
0
10
34.350243043101081
20
-25.565673114410266
30
0
10
35.460861563422597
20
-25.461914802030133
30
0
10
36.25816221159976
20
-25.392151514777002
30
0
10
36.776491169929351
20
-25.372770633803636
30
0
10
37.14068682447558
20
-25.413870981953917
30
0
10
37.483480309501466
20
-25.520723960483217
30
0
10
37.860330036797848
20
-25.693843718777416
30
0
10
38.240478159741841
20
-25.931513421310498
30
0
10
38.57471671211227
20
-26.234454865171841
30
0
10
38.834223615713704
20
-26.6089250853382
30
0
10
39.00366863988183
20
-27.063009912086518
30
0
10
39.0751531596012
20
-27.602811593716766
30
0
10
39.050599688952047
20
-28.105453919740864
30
0
10
38.985618838440615
20
-28.52271812595097
30
0
10
38.921597793452761
20
-28.818792180795061
30
0
10
38.8844124484472
20
-28.971303970813729
30
0
0
SPLINE
5
101
100
AcDbEntity
8
0
100
AcDbSpline
70
4
71
5
72
61
73
55
74
0
42
0.000000001
43
0.0000000001
44
0.0000000001
40
0
40
0
40
0
40
0
40
0
40
0
40
0.02
40
0.040000000000000001
40
0.059999999999999998
40
0.080000000000000002
40
0.10000000000000001
40
0.12000000000000001
40
0.14000000000000001
40
0.16
40
0.17999999999999999
40
0.19999999999999998
40
0.21999999999999997
40
0.23999999999999996
40
0.25999999999999995
40
0.27999999999999997
40
0.29999999999999999
40
0.32000000000000001
40
0.34000000000000002
40
0.36000000000000004
40
0.38000000000000006
40
0.40000000000000008
40
0.4200000000000001
40
0.44000000000000011
40
0.46000000000000013
40
0.48000000000000015
40
0.50000000000000011
40
0.52000000000000013
40
0.54000000000000015
40
0.56000000000000016
40
0.58000000000000018
40
0.6000000000000002
40
0.62000000000000022
40
0.64000000000000024
40
0.66000000000000025
40
0.68000000000000027
40
0.70000000000000029
40
0.72000000000000031
40
0.74000000000000032
40
0.76000000000000034
40
0.78000000000000036
40
0.80000000000000038
40
0.8200000000000004
40
0.84000000000000041
40
0.86000000000000043
40
0.88000000000000045
40
0.90000000000000047
40
0.92000000000000048
40
0.9400000000000005
40
0.96000000000000052
40
0.98000000000000054
40
1
40
1
40
1
40
1
40
1
40
1
41
1
41
1
41
1
41
1
41
1
41
1
41
1
41
1
41
1
41
1
41
1
41
1
41
1
41
1
41
1
41
1
41
1
41
1
41
1
41
1
41
1
41
1
41
1
41
1
41
1
41
1
41
1
41
1
41
1
41
1
41
1
41
1
41
1
41
1
41
1
41
1
41
1
41
1
41
1
41
1
41
1
41
1
41
1
41
1
41
1
41
1
41
1
41
1
41
1
41
1
41
1
41
1
41
1
41
1
41
1
10
38.8844124484472
20
-28.971303970813729
30
0
10
38.873679326095683
20
-29.101876280489698
30
0
10
38.851724593078842
20
-29.371378265321418
30
0
10
38.817327032316669
20
-29.800702815138589
30
0
10
38.768530754443368
20
-30.423315911766174
30
0
10
38.70262623625576
20
-31.282959000733818
30
0
10
38.631767925041615
20
-32.216958851937321
30
0
10
38.555882068305422
20
-33.21086093183311
30
0
10
38.474855936877702
20
-34.240731229442204
30
0
10
38.38848266905017
20
-35.279667601969884
30
0
10
38.296403042267457
20
-36.304089677266873
30
0
10
38.198059320917125
20
-37.29957125307925
30
0
10
38.092617464729223
20
-38.268169168998242
30
0
10
37.978984675588322
20
-39.231096552556956
30
0
10
37.856078350081376
20
-40.218643740141516
30
0
10
37.723064685707392
20
-41.262071089859312
30
0
10
37.57957768752528
20
-42.385530739534268
30
0
10
37.426026464960181
20
-43.59601847575253
30
0
10
37.263562394418486
20
-44.881651991482258
30
0
10
37.093668943617004
20
-46.219245838795004
30
0
10
36.917861440060811
20
-47.579264564051662
30
0
10
36.737324655236463
20
-48.932056081245705
30
0
10
36.552617892970829
20
-50.252991359140282
30
0
10
36.363248459909748
20
-51.52940469070181
30
0
10
36.167671566717907
20
-52.761941064120208
30
0
10
35.963863246277732
20
-53.958531146131314
30
0
10
35.749732743504758
20
-55.130341462111588
30
0
10
35.52363590825464
20
-56.286669312674277
30
0
10
35.284762443544956
20
-57.430910803324615
30
0
10
35.033793905295369
20
-58.554468586877192
30
0
10
34.77223389441442
20
-59.64056449396918
30
0
10
34.501267328529288
20
-60.67164802580281
30
0
10
34.220686070483254
20
-61.636099641406958
30
0
10
33.927977007965559
20
-62.534204183388937
30
0
10
33.616852387992722
20
-63.387060715222383
30
0
10
33.278311162753226
20
-64.231931916432544
30
0
10
32.903271425289496
20
-65.109180113337317
30
0
10
32.484667650525992
20
-66.052036104169161
30
0
10
32.019900051090318
20
-67.074610906665541
30
0
10
31.51278244775915
20
-68.162263129922266
30
0
10
30.971041622488325
20
-69.282098087994754
30
0
10
30.404209202721837
20
-70.391734923396129
30
0
10
29.821268199936711
20
-71.449102896498459
30
0
10
29.228642846024769
20
-72.420863220289036
30
0
10
28.627445709963549
20
-73.293748023324554
30
0
10
28.013513515361275
20
-74.074987832013321
30
0
10
27.379691958495599
20
-74.783934325002946
30
0
10
26.717515473933272
20
-75.446076279702382
30
0
10
26.019035339002365
20
-76.086425964751484
30
0
10
25.278834043328587
20
-76.722323327672242
30
0
10
24.493800606664987
20
-77.363929418285906
30
0
10
23.828702187022387
20
-77.885890419199356
30
0
10
23.308831034084463
20
-78.282990547689693
30
0
10
22.952901519278448
20
-78.550225894465925
30
0
10
22.772599602079122
20
-78.684468956658293
30
0
0
SPLINE
5
102
100
AcDbEntity
8
0
100
AcDbSpline
70
4
71
5
72
71
73
65
74
0
42
0.000000001
43
0.0000000001
44
0.0000000001
40
0
40
0
40
0
40
0
40
0
40
0
40
0.016666666666666666
40
0.033333333333333333
40
0.050000000000000003
40
0.066666666666666666
40
0.083333333333333329
40
0.099999999999999992
40
0.11666666666666665
40
0.13333333333333333
40
0.14999999999999999
40
0.16666666666666666
40
0.18333333333333332
40
0.19999999999999998
40
0.21666666666666665
40
0.23333333333333331
40
0.24999999999999997
40
0.26666666666666666
40
0.28333333333333333
40
0.29999999999999999
40
0.31666666666666665
40
0.33333333333333331
40
0.34999999999999998
40
0.36666666666666664
40
0.3833333333333333
40
0.39999999999999997
40
0.41666666666666663
40
0.43333333333333329
40
0.44999999999999996
40
0.46666666666666662
40
0.48333333333333328
40
0.49999999999999994
40
0.51666666666666661
40
0.53333333333333333
40
0.55000000000000004
40
0.56666666666666676
40
0.58333333333333348
40
0.6000000000000002
40
0.61666666666666692
40
0.63333333333333364
40
0.65000000000000036
40
0.66666666666666707
40
0.68333333333333379
40
0.70000000000000051
40
0.71666666666666723
40
0.73333333333333395
40
0.75000000000000067
40
0.76666666666666738
40
0.7833333333333341
40
0.80000000000000082
40
0.81666666666666754
40
0.83333333333333426
40
0.85000000000000098
40
0.8666666666666677
40
0.88333333333333441
40
0.90000000000000113
40
0.91666666666666785
40
0.93333333333333457
40
0.95000000000000129
40
0.96666666666666801
40
0.98333333333333472
40
1
40
1
40
1
40
1
40
1
40
1
41
1
41
1
41
1
41
1
41
1
41
1
41
1
41
1
41
1
41
1
41
1
41
1
41
1
41
1
41
1
41
1
41
1
41
1
41
1
41
1
41
1
41
1
41
1
41
1
41
1
41
1
41
1
41
1
41
1
41
1
41
1
41
1
41
1
41
1
41
1
41
1
41
1
41
1
41
1
41
1
41
1
41
1
41
1
41
1
41
1
41
1
41
1
41
1
41
1
41
1
41
1
41
1
41
1
41
1
41
1
41
1
41
1
41
1
41
1
41
1
41
1
41
1
41
1
41
1
41
1
10
26.587387322188029
20
-75.555794135849553
30
0
10
26.370876920730886
20
-75.777450278031012
30
0
10
25.935038401298314
20
-76.210615656978604
30
0
10
25.272825312928163
20
-76.829923937359482
30
0
10
24.3729750087053
20
-77.59475314379624
30
0
10
23.216069232877121
20
-78.451098150848466
30
0
10
22.015710884875332
20
-79.213381650724713
30
0
10
20.748586951008221
20
-79.893353011828353
30
0
10
19.377707553570833
20
-80.510006206375166
30
0
10
17.868114382000641
20
-81.083253529110578
30
0
10
16.200447598185416
20
-81.628502991098472
30
0
10
14.385734526053696
20
-82.150755436147989
30
0
10
12.47870049607805
20
-82.639235021671624
30
0
10
10.555430809948092
20
-83.074360051187227
30
0
10
8.6916236054240521
20
-83.434483648471939
30
0
10
6.9414474581223331
20
-83.702488609810246
30
0
10
5.3142264671818582
20
-83.872970336686393
30
0
10
3.7574799375295331
20
-83.957669724998908
30
0
10
2.1847937123177448
20
-83.978487479171505
30
0
10
0.4995925426481036
20
-83.961660478530888
30
0
10
-1.3806704752241914
20
-83.931765768198744
30
0
10
-3.4975687142812943
20
-83.905119471286838
30
0
10
-5.8550406847218479
20
-83.890216244323582
30
0
10
-8.4278783964602404
20
-83.889380481273662
30
0
10
-11.168316174495377
20
-83.899963825996252
30
0
10
-14.013424264525096
20
-83.915754848520436
30
0
10
-16.891991941269882
20
-83.928216237087327
30
0
10
-19.731926406113949
20
-83.927972716169535
30
0
10
-22.466157600077935
20
-83.905458225585505
30
0
10
-25.037276489711676
20
-83.850783357826856
30
0
10
-27.402443276954756
20
-83.753816408517437
30
0
10
-29.538407454566673
20
-83.604175406126899
30
0
10
-31.446068102193557
20
-83.391261918504512
30
0
10
-33.156350457643221
20
-83.104268568481046
30
0
10
-34.732425261713438
20
-82.732223607526038
30
0
10
-36.250674822175327
20
-82.264210405746624
30
0
10
-37.783521696941364
20
-81.689569686452984
30
0
10
-39.38278851726254
20
-80.998108050846994
30
0
10
-41.059605333136787
20
-80.180310581062514
30
0
10
-42.791516338110199
20
-79.227536074127556
30
0
10
-44.535538602829419
20
-78.13223263465585
30
0
10
-46.239452695110622
20
-76.888108073385666
30
0
10
-47.85307470763945
20
-75.490417985873947
30
0
10
-49.34142085898511
20
-73.935966559404164
30
0
10
-50.68526767876962
20
-72.224732948444426
30
0
10
-51.877307468793923
20
-70.362025884400765
30
0
10
-52.919776908690935
20
-68.360528469744196
30
0
10
-53.821520123484675
20
-66.242283989692694
30
0
10
-54.595243740393599
20
-64.041010209584726
30
0
10
-55.254895103199217
20
-61.803465189729401
30
0
10
-55.815189587828833
20
-59.581417774016501
30
0
10
-56.29095083726466
20
-57.424601836711801
30
0
10
-56.696508965310677
20
-55.372925661473303
30
0
10
-57.045112127816466
20
-53.449824779459604
30
0
10
-57.348240507313371
20
-51.653045663136233
30
0
10
-57.615280648677221
20
-49.953673260230254
30
0
10
-57.853783106294429
20
-48.307990486600445
30
0
10
-58.069578359251004
20
-46.666504397654251
30
0
10
-58.266951328641724
20
-44.983670175368957
30
0
10
-58.448776662709257
20
-43.228437785628373
30
0
10
-58.616789783877223
20
-41.382559808927589
30
0
10
-58.740855107365626
20
-39.826054422719409
30
0
10
-58.828222035575912
20
-38.612478877416414
30
0
10
-58.883942447231462
20
-37.782904068515528
30
0
10
-58.911171600483712
20
-37.362985665272689
30
0
0
SPLINE
5
103
100
AcDbEntity
8
0
100
AcDbSpline
70
4
71
5
72
21
73
15
74
0
42
0.000000001
43
0.0000000001
44
0.0000000001
40
0
40
0
40
0
40
0
40
0
40
0
40
0.10000000000000001
40
0.20000000000000001
40
0.30000000000000004
40
0.40000000000000002
40
0.5
40
0.59999999999999998
40
0.69999999999999996
40
0.79999999999999993
40
0.89999999999999991
40
1
40
1
40
1
40
1
40
1
40
1
41
1
41
1
41
1
41
1
41
1
41
1
41
1
41
1
41
1
41
1
41
1
41
1
41
1
41
1
41
1
10
-59.500000886619091
20
-15.000000223517418
30
0
10
-59.509745512057258
20
-15.389617608209019
30
0
10
-59.527304991047444
20
-16.17402107074475
30
0
10
-59.547854802566214
20
-17.366132588565261
30
0
10
-59.563486037417981
20
-18.987135351809425
30
0
10
-59.562125141516049
20
-21.069367118481665
30
0
10
-59.538174825907092
20
-23.212102294718868
30
0
10
-59.490069029047497
20
-25.419535413334991
30
0
10
-59.417468228970662
20
-27.692575848548305
30
0
10
-59.321852342039215
20
-30.027259798385156
30
0
10
-59.205186435678627
20
-32.418324034247306
30
0
10
-59.096503968635339
20
-34.372288109042202
30
0
10
-59.006923866798637
20
-35.859371137108781
30
0
10
-58.943676879011036
20
-36.860206310313728
30
0
10
-58.911171600483712
20
-37.362985665272689
30
0
0
SPLINE
5
104
100
AcDbEntity
8
0
100
AcDbSpline
70
4
71
5
72
86
73
80
74
0
42
0.000000001
43
0.0000000001
44
0.0000000001
40
0
40
0
40
0
40
0
40
0
40
0
40
0.013333333333333334
40
0.026666666666666668
40
0.040000000000000001
40
0.053333333333333337
40
0.066666666666666666
40
0.080000000000000002
40
0.093333333333333338
40
0.10666666666666667
40
0.12000000000000001
40
0.13333333333333333
40
0.14666666666666667
40
0.16
40
0.17333333333333334
40
0.18666666666666668
40
0.20000000000000001
40
0.21333333333333335
40
0.22666666666666668
40
0.24000000000000002
40
0.25333333333333335
40
0.26666666666666666
40
0.27999999999999997
40
0.29333333333333328
40
0.30666666666666659
40
0.3199999999999999
40
0.3333333333333332
40
0.34666666666666651
40
0.35999999999999982
40
0.37333333333333313
40
0.38666666666666644
40
0.39999999999999974
40
0.41333333333333305
40
0.42666666666666636
40
0.43999999999999967
40
0.45333333333333298
40
0.46666666666666629
40
0.47999999999999959
40
0.4933333333333329
40
0.50666666666666627
40
0.51999999999999957
40
0.53333333333333288
40
0.54666666666666619
40
0.5599999999999995
40
0.57333333333333281
40
0.58666666666666611
40
0.59999999999999942
40
0.61333333333333273
40
0.62666666666666604
40
0.63999999999999935
40
0.65333333333333266
40
0.66666666666666596
40
0.67999999999999927
40
0.69333333333333258
40
0.70666666666666589
40
0.7199999999999992
40
0.7333333333333325
40
0.74666666666666581
40
0.75999999999999912
40
0.77333333333333243
40
0.78666666666666574
40
0.79999999999999905
40
0.81333333333333235
40
0.82666666666666566
40
0.83999999999999897
40
0.85333333333333228
40
0.86666666666666559
40
0.87999999999999889
40
0.8933333333333322
40
0.90666666666666551
40
0.91999999999999882
40
0.93333333333333213
40
0.94666666666666544
40
0.95999999999999874
40
0.97333333333333205
40
0.98666666666666536
40
1
40
1
40
1
40
1
40
1
40
1
41
1
41
1
41
1
41
1
41
1
41
1
41
1
41
1
41
1
41
1
41
1
41
1
41
1
41
1
41
1
41
1
41
1
41
1
41
1
41
1
41
1
41
1
41
1
41
1
41
1
41
1
41
1
41
1
41
1
41
1
41
1
41
1
41
1
41
1
41
1
41
1
41
1
41
1
41
1
41
1
41
1
41
1
41
1
41
1
41
1
41
1
41
1
41
1
41
1
41
1
41
1
41
1
41
1
41
1
41
1
41
1
41
1
41
1
41
1
41
1
41
1
41
1
41
1
41
1
41
1
41
1
41
1
41
1
41
1
41
1
41
1
41
1
41
1
41
1
41
1
41
1
41
1
41
1
41
1
41
1
10
-31.119493361800473
20
-83.409981962698865
30
0
10
-31.321383998866889
20
-83.137059990593031
30
0
10
-31.718721020422606
20
-82.59440562596204
30
0
10
-32.295392975840677
20
-81.789994871294667
30
0
10
-33.025617671375407
20
-80.736576525747495
30
0
10
-33.875262946740285
20
-79.448295710426251
30
0
10
-34.665967891739143
20
-78.177946196622187
30
0
10
-35.405975466484975
20
-76.904946079516449
30
0
10
-36.109679371184157
20
-75.593501124857227
30
0
10
-36.794722531090002
20
-74.199965962947488
30
0
10
-37.476885687945888
20
-72.685763694145436
30
0
10
-38.166180881125207
20
-71.027253533080966
30
0
10
-38.861304647091188
20
-69.229786558634004
30
0
10
-39.548717153819453
20
-67.329919269774919
30
0
10
-40.20897832782471
20
-65.37903886586912
30
0
10
-40.82141718500921
20
-63.431256651149113
30
0
10
-41.369441591520122
20
-61.529666173292973
30
0
10
-41.845641370474212
20
-59.693118004604699
30
0
10
-42.256810724455065
20
-57.903236639407965
30
0
10
-42.618614227852134
20
-56.119878190746526
30
0
10
-42.950525873807528
20
-54.295825511260304
30
0
10
-43.270604026157578
20
-52.391981461734161
30
0
10
-43.590491172781974
20
-50.391841834437386
30
0
10
-43.909894518071575
20
-48.317680689284607
30
0
10
-44.220255463787254
20
-46.216564951660629
30
0
10
-44.508879036529514
20
-44.144948019853842
30
0
10
-44.763067766565435
20
-42.153035150870593
30
0
10
-44.973850983864665
20
-40.270962086927781
30
0
10
-45.140867818697032
20
-38.489992510944184
30
0
10
-45.273290930089367
20
-36.760671175803253
30
0
10
-45.38501570133878
20
-35.015374449248462
30
0
10
-45.491071773287331
20
-33.185838422879137
30
0
10
-45.603892037187741
20
-31.220850334640218
30
0
10
-45.728790253477797
20
-29.10842179516456
30
0
10
-45.863109757413142
20
-26.878260380779814
30
0
10
-45.999326612640708
20
-24.583115519427192
30
0
10
-46.127033414008203
20
-22.286192097207355
30
0
10
-46.235468443147703
20
-20.045397807943068
30
0
10
-46.31559673078219
20
-17.90057647694691
30
0
10
-46.362915292922636
20
-15.855385808819705
30
0
10
-46.377723421155828
20
-13.878477526136749
30
0
10
-46.363344976114988
20
-11.920353784448476
30
0
10
-46.324928977040763
20
-9.925828640737393
30
0
10
-46.268028574001193
20
-7.8481155526740611
30
0
10
-46.197245730580121
20
-5.6626155886939165
30
0
10
-46.114933123418275
20
-3.3797479212354697
30
0
10
-46.021767106540487
20
-1.0337766470246308
30
0
10
-45.917225797427157
20
1.3271820490915269
30
0
10
-45.800095781894214
20
3.6514978291400428
30
0
10
-45.668979404789624
20
5.8943973771588443
30
0
10
-45.522769196049467
20
8.0278834240171797
30
0
10
-45.361222404276766
20
10.05205185561671
30
0
10
-45.184270864616643
20
11.988068413816785
30
0
10
-44.991253404087537
20
13.869553224425706
30
0
10
-44.780092601978339
20
15.734264374548539
30
0
10
-44.546681795409562
20
17.616320868904744
30
0
10
-44.283711886564291
20
19.536557615728498
30
0
10
-43.98176959413253
20
21.500816031328853
30
0
10
-43.632080005666353
20
23.504168940445822
30
0
10
-43.228838901783398
20
25.533407743616191
30
0
10
-42.77156575294952
20
27.570215791517487
30
0
10
-42.267812321332805
20
29.594082979576331
30
0
10
-41.734660790153924
20
31.585206069749194
30
0
10
-41.191809232895473
20
33.526611694907956
30
0
10
-40.65580947088425
20
35.406266047702353
30
0
10
-40.133410935312419
20
37.2194374646688
30
0
10
-39.616305242773976
20
38.97040026428175
30
0
10
-39.072602300091276
20
40.675871646907851
30
0
10
-38.456878561040277
20
42.35840847087546
30
0
10
-37.725651706649302
20
44.036906459612609
30
0
10
-36.851706941918422
20
45.717617544697752
30
0
10
-35.837434237526516
20
47.38594147200488
30
0
10
-34.732475357663262
20
48.995258497509049
30
0
10
-33.620286952283372
20
50.476804301148299
30
0
10
-32.596545975735907
20
51.755075319260577
30
0
10
-31.750920888639605
20
52.760918817438863
30
0
10
-31.26709523820746
20
53.309429393853883
30
0
10
-31.021497035321648
20
53.569975383167908
30
0
10
-30.909915832506062
20
53.676619538303299
30
0
10
-30.867160357884199
20
53.713180264268196
30
0
0
SPLINE
5
105
100
AcDbEntity
8
0
100
AcDbSpline
70
4
71
5
72
21
73
15
74
0
42
0.000000001
43
0.0000000001
44
0.0000000001
40
0
40
0
40
0
40
0
40
0
40
0
40
0.10000000000000001
40
0.20000000000000001
40
0.30000000000000004
40
0.40000000000000002
40
0.5
40
0.59999999999999998
40
0.69999999999999996
40
0.79999999999999993
40
0.89999999999999991
40
1
40
1
40
1
40
1
40
1
40
1
41
1
41
1
41
1
41
1
41
1
41
1
41
1
41
1
41
1
41
1
41
1
41
1
41
1
41
1
41
1
10
-30.867160357884199
20
53.713180264268196
30
0
10
-30.846480795997962
20
53.728116921958005
30
0
10
-30.804667636641273
20
53.757533471879412
30
0
10
-30.740585817858186
20
53.800288027553798
30
0
10
-30.652374182525989
20
53.854508241713283
30
0
10
-30.537183533072408
20
53.917327786084272
30
0
10
-30.41663627921217
20
53.974758519652795
30
0
10
-30.290310428678616
20
54.026375912943926
30
0
10
-30.158003586334992
20
54.0719763539322
30
0
10
-30.019984873364706
20
54.111830581886416
30
0
10
-29.876698899942134
20
54.146385880186749
30
0
10
-29.758208840962631
20
54.170145622788901
30
0
10
-29.667308385611189
20
54.185920295826136
30
0
10
-29.605819343013554
20
54.19554266197953
30
0
10
-29.574852627961615
20
54.200130315371986
30
0
0
LINE
5
106
100
AcDbEntity
8
0
100
AcDbLine
10
-29.574852627961615
20
54.200130315371986
30
0
11
-29.487051074199755
21
54.221561629407155
31
0
0
SPLINE
5
107
100
AcDbEntity
8
0
100
AcDbSpline
70
4
71
5
72
50
73
44
74
0
42
0.000000001
43
0.0000000001
44
0.0000000001
40
0
40
0
40
0
40
0
40
0
40
0
40
0.025000000000000001
40
0.050000000000000003
40
0.075000000000000011
40
0.10000000000000001
40
0.125
40
0.14999999999999999
40
0.17499999999999999
40
0.19999999999999998
40
0.22499999999999998
40
0.24999999999999997
40
0.27499999999999997
40
0.29999999999999999
40
0.32500000000000001
40
0.35000000000000003
40
0.37500000000000006
40
0.40000000000000008
40
0.4250000000000001
40
0.45000000000000012
40
0.47500000000000014
40
0.50000000000000011
40
0.52500000000000013
40
0.55000000000000016
40
0.57500000000000018
40
0.6000000000000002
40
0.62500000000000022
40
0.65000000000000024
40
0.67500000000000027
40
0.70000000000000029
40
0.72500000000000031
40
0.75000000000000033
40
0.77500000000000036
40
0.80000000000000038
40
0.8250000000000004
40
0.85000000000000042
40
0.87500000000000044
40
0.90000000000000047
40
0.92500000000000049
40
0.95000000000000051
40
0.95945138096065952
40
0.95945138096065952
40
0.95945138096065952
40
0.95945138096065952
40
0.95945138096065952
40
0.95945138096065952
41
1
41
1
41
1
41
1
41
1
41
1
41
1
41
1
41
1
41
1
41
1
41
1
41
1
41
1
41
1
41
1
41
1
41
1
41
1
41
1
41
1
41
1
41
1
41
1
41
1
41
1
41
1
41
1
41
1
41
1
41
1
41
1
41
1
41
1
41
1
41
1
41
1
41
1
41
1
41
1
41
1
41
1
41
1
41
1
10
7.1962395040311993
20
-83.648390967197372
30
0
10
7.3510841651091727
20
-83.458924945857234
30
0
10
7.658704866429269
20
-83.081023664117481
30
0
10
8.1139300941136216
20
-82.517265447939096
30
0
10
8.7084724507890918
20
-81.771769210445882
30
0
10
9.430788495365972
20
-80.848444527039916
30
0
10
10.131900975685236
20
-79.92809627529914
30
0
10
10.811233175452156
20
-78.999928767455273
30
0
10
11.467884670493111
20
-78.044916173451909
30
0
10
12.100709623898059
20
-77.039139783687148
30
0
10
12.70851655961695
20
-75.961805815507546
30
0
10
13.290233370172047
20
-74.801773933694605
30
0
10
13.845089394061834
20
-73.565020453632258
30
0
10
14.37279085501606
20
-72.280981469753073
30
0
10
14.873632128153114
20
-70.990122592360507
30
0
10
15.348615582446621
20
-69.732178609825439
30
0
10
15.799565637714675
20
-68.534409529940703
30
0
10
16.229267297576552
20
-67.399220663475887
30
0
10
16.641553130176728
20
-66.293607791645258
30
0
10
17.040652556255843
20
-65.165444165488879
30
0
10
17.430558507625914
20
-63.958866810437478
30
0
10
17.814441856230644
20
-62.628575273629707
30
0
10
18.193915083709584
20
-61.157965479916889
30
0
10
18.568826428326645
20
-59.563452601601973
30
0
10
18.937753587648675
20
-57.880438704571844
30
0
10
19.298314348656461
20
-56.154168437637814
30
0
10
19.647553451646658
20
-54.42824248147403
30
0
10
19.982280334168799
20
-52.735112901814489
30
0
10
20.299461378475009
20
-51.083338486537386
30
0
10
20.596472481482216
20
-49.454242605951102
30
0
10
20.87111962869816
20
-47.814797431256821
30
0
10
21.121713442572204
20
-46.126776598253365
30
0
10
21.347126608570221
20
-44.35744066160175
30
0
10
21.546860376858355
20
-42.489424223086274
30
0
10
21.721116883174552
20
-40.531394420061197
30
0
10
21.870858630118889
20
-38.52744022103937
30
0
10
21.997574567499122
20
-36.545972620177494
30
0
10
22.103061883896693
20
-34.669603100428986
30
0
10
22.189209754717215
20
-32.984969069785855
30
0
10
22.249245023142088
20
-31.747804443509967
30
0
10
22.286348616983453
20
-30.984846215346316
30
0
10
22.308084833206095
20
-30.550579387037367
30
0
10
22.319228490469676
20
-30.334235582855179
30
0
10
22.322176676114811
20
-30.27755402040162
30
0
0
SPLINE
5
108
100
AcDbEntity
8
0
100
AcDbSpline
70
0
71
3
72
35
73
31
74
0
42
0.000000001
43
0.0000000001
44
0.0000000001
40
0.022770700253879748
40
0.022770700253879748
40
0.022770700253879748
40
0.022770700253879748
40
0.12644949674697806
40
0.12644949674697806
40
0.12644949674697806
40
0.22421686319982673
40
0.22421686319982673
40
0.22421686319982673
40
0.3227505362084282
40
0.3227505362084282
40
0.3227505362084282
40
0.40925650626777876
40
0.40925650626777876
40
0.40925650626777876
40
0.49442491057546756
40
0.49442491057546756
40
0.49442491057546756
40
0.6208186829316007
40
0.6208186829316007
40
0.6208186829316007
40
0.72324030388390814
40
0.72324030388390814
40
0.72324030388390814
40
0.80391535105952305
40
0.80391535105952305
40
0.80391535105952305
40
0.90195767552976158
40
0.90195767552976158
40
0.90195767552976158
40
0.94274353014252488
40
0.94274353014252488
40
0.94274353014252488
40
0.94274353014252488
10
8.6715721961459877
20
-83.419870801176685
30
0
10
9.7226182446478013
20
-82.121488487831996
30
0
10
10.715623943469353
20
-80.855678992414369
30
0
10
11.661413303592896
20
-79.514835739583091
30
0
10
12.55327680978781
20
-78.250443037415579
30
0
10
13.4030712504397
20
-76.857131984257649
30
0
10
14.168507365811918
20
-75.250310400134254
30
0
10
14.93994301594201
20
-73.630894450850846
30
0
10
15.623842844543903
20
-71.832105038050116
30
0
10
16.236304688378393
20
-70.211040396769903
30
0
10
16.774005195296635
20
-68.787854139310312
30
0
10
17.259209375215534
20
-67.535131626618366
30
0
10
17.730373987787964
20
-66.204461406011319
30
0
10
18.194253396243965
20
-64.894366168987702
30
0
10
18.642566110991694
20
-63.44108272329963
30
0
10
19.078314411433588
20
-61.70941239585234
30
0
10
19.724984640121352
20
-59.139535139815926
30
0
10
20.348983927031171
20
-56.056470760020993
30
0
10
20.904561032389243
20
-53.217595181469719
30
0
10
21.354766027730555
20
-50.917147675101482
30
0
10
21.757946450326962
20
-48.749371026803495
30
0
10
22.089100029656468
20
-46.365818225931974
30
0
10
22.34994173852985
20
-44.488351018637722
30
0
10
22.565486838804283
20
-42.436298151917185
30
0
10
22.736907678926009
20
-40.289726622446516
30
0
10
22.94523104800431
20
-37.68105306403114
30
0
10
23.089918382273083
20
-34.974907038276136
30
0
10
23.189576052063661
20
-32.98275007509848
30
0
10
23.231033894409691
20
-32.154007746670395
30
0
10
23.264751623943248
20
-31.451641780466201
30
0
10
23.291474636994902
20
-30.910883395590012
30
0
0
SPLINE
5
109
100
AcDbEntity
8
0
100
AcDbSpline
70
0
71
3
72
68
73
64
74
0
42
0.000000001
43
0.0000000001
44
0.0000000001
40
0.0078606111132519061
40
0.0078606111132519061
40
0.0078606111132519061
40
0.0078606111132519061
40
0.058331410102867326
40
0.058331410102867326
40
0.058331410102867326
40
0.11297406026409573
40
0.11297406026409573
40
0.11297406026409573
40
0.16841318149758974
40
0.16841318149758974
40
0.16841318149758974
40
0.21228713892537848
40
0.21228713892537848
40
0.21228713892537848
40
0.26151919274254232
40
0.26151919274254232
40
0.26151919274254232
40
0.31587165131612688
40
0.31587165131612688
40
0.31587165131612688
40
0.35833038599393796
40
0.35833038599393796
40
0.35833038599393796
40
0.40158521534136299
40
0.40158521534136299
40
0.40158521534136299
40
0.46581027658782093
40
0.46581027658782093
40
0.46581027658782093
40
0.51274726878819499
40
0.51274726878819499
40
0.51274726878819499
40
0.55791289062821281
40
0.55791289062821281
40
0.55791289062821281
40
0.61327991463599496
40
0.61327991463599496
40
0.61327991463599496
40
0.66181158421586839
40
0.66181158421586839
40
0.66181158421586839
40
0.71744988972007684
40
0.71744988972007684
40
0.71744988972007684
40
0.77734132151940538
40
0.77734132151940538
40
0.77734132151940538
40
0.83300599113955398
40
0.83300599113955398
40
0.83300599113955398
40
0.88175008169193581
40
0.88175008169193581
40
0.88175008169193581
40
0.92211103518979876
40
0.92211103518979876
40
0.92211103518979876
40
0.96105551759489938
40
0.96105551759489938
40
0.96105551759489938
40
0.98178504594344462
40
0.98178504594344462
40
0.98178504594344462
40
0.982550503113373
40
0.982550503113373
40
0.982550503113373
40
0.982550503113373
10
-32.513706784170054
20
-83.197680570827998
30
0
10
-33.75244048929482
20
-81.483964757935738
30
0
10
-34.835272396570105
20
-79.851751708533442
30
0
10
-35.800112206481977
20
-78.204330232869651
30
0
10
-36.844704431096609
20
-76.420735022076315
30
0
10
-37.771635401061566
20
-74.561034599156017
30
0
10
-38.726878571987072
20
-72.267975909065527
30
0
10
-39.696045363937124
20
-69.941493603753685
30
0
10
-40.699219051170971
20
-67.16408417079532
30
0
10
-41.542408732553483
20
-64.451286198861453
30
0
10
-42.209700481798919
20
-62.304405438801524
30
0
10
-42.755003477726888
20
-60.250806799985725
30
0
10
-43.190799254081654
20
-58.259042851161368
30
0
10
-43.679816483724153
20
-56.024035214091015
30
0
10
-44.05961351501147
20
-53.786694364156702
30
0
10
-44.454457808328655
20
-51.310863568076527
30
0
10
-44.890368082867241
20
-48.577532732866914
30
0
10
-45.335766152061119
20
-45.600185490870793
30
0
10
-45.670785108349357
20
-42.908015405431357
30
0
10
-45.932493250913353
20
-40.804961774279406
30
0
10
-46.115214809842811
20
-38.909325665649448
30
0
10
-46.24991760705548
20
-37.046965411670513
30
0
10
-46.387146060759257
20
-35.149686192669549
30
0
10
-46.489399954537106
20
-33.219846163626308
30
0
10
-46.619357381663782
20
-30.999480735190357
30
0
10
-46.812319042652042
20
-27.702667228300264
30
0
10
-47.067379570153534
20
-23.797496415795123
30
0
10
-47.221410470253566
20
-20.253420551965583
30
0
10
-47.333979411665212
20
-17.6633372114491
30
0
10
-47.382088579605636
20
-15.305420177969125
30
0
10
-47.367748560097326
20
-12.978717247255103
30
0
10
-47.353949723232674
20
-10.739822512499321
30
0
10
-47.289933368807112
20
-8.4614347536889145
30
0
10
-47.2056014197899
20
-5.9531447097760424
30
0
10
-47.102221706290159
20
-2.8783159036605701
30
0
10
-46.968094915749823
20
0.50835396754290718
30
0
10
-46.795620630539574
20
3.6765055793983761
30
0
10
-46.644439215774128
20
6.4535319766253929
30
0
10
-46.461043133802121
20
9.0070466144515358
30
0
10
-46.242303234766176
20
11.366798583165778
30
0
10
-45.991532605322007
20
14.072096012371237
30
0
10
-45.704347344374767
20
16.605845075368045
30
0
10
-45.317416976137082
20
19.318001426224775
30
0
10
-44.900908717116799
20
22.237481551372817
30
0
10
-44.330311975698642
20
25.351373747283414
30
0
10
-43.585580662397163
20
28.412518986786822
30
0
10
-42.893407821220052
20
31.257627766072318
30
0
10
-42.100993281393251
20
34.004508512313969
30
0
10
-41.369387532778006
20
36.537723662902842
30
0
10
-40.72873957595916
20
38.755993699024174
30
0
10
-40.133970991416533
20
40.841788063292874
30
0
10
-39.263162692602918
20
42.958430280734909
30
0
10
-38.542118298181407
20
44.711046795715042
30
0
10
-37.588128364802195
20
46.495962842435958
30
0
10
-36.482862180243849
20
48.178034812198959
30
0
10
-35.416385406354834
20
49.801074323245601
30
0
10
-34.246311318593243
20
51.305932369190728
30
0
10
-33.341360976021249
20
52.410179746932016
30
0
10
-32.859670307103407
20
52.997953056706365
30
0
10
-32.455288199744707
20
53.470752274223941
30
0
10
-32.149453637154764
20
53.815186222192764
30
0
10
-32.138160410661122
20
53.827904766995459
30
0
10
-32.127020307479469
20
53.840434364657966
30
0
10
-32.11602725089233
20
53.852780068355997
30
0
0
SPLINE
5
110
100
AcDbEntity
8
0
100
AcDbSpline
70
0
71
3
72
32
73
28
74
0
42
0.000000001
43
0.0000000001
44
0.0000000001
40
0.044127317315796971
40
0.044127317315796971
40
0.044127317315796971
40
0.044127317315796971
40
0.10035973698483008
40
0.10035973698483008
40
0.10035973698483008
40
0.21281476986172632
40
0.21281476986172632
40
0.21281476986172632
40
0.32614840005434464
40
0.32614840005434464
40
0.32614840005434464
40
0.43972625401115584
40
0.43972625401115584
40
0.43972625401115584
40
0.57052281255331383
40
0.57052281255331383
40
0.57052281255331383
40
0.68922195475088088
40
0.68922195475088088
40
0.68922195475088088
40
0.78475370558678637
40
0.78475370558678637
40
0.78475370558678637
40
0.86842028270662686
40
0.86842028270662686
40
0.86842028270662686
40
0.9321335319508407
40
0.9321335319508407
40
0.9321335319508407
40
0.9321335319508407
10
23.473585203726778
20
1.2917906408523316
30
0
10
23.44637713326108
20
2.1595402468438625
30
0
10
23.399335026792198
20
3.1542525094481926
30
0
10
23.334586146375148
20
4.2582275789554185
30
0
10
23.20509967720136
20
6.4659851940003268
30
0
10
23.013194261338434
20
9.0362297016895763
30
0
10
22.795876390522793
20
11.34359189857296
30
0
10
22.576860641959293
20
13.668981231998998
30
0
10
22.320430437976793
20
15.754586401014297
30
0
10
21.959669490398635
20
17.968560177439116
30
0
10
21.598131135475086
20
20.187304867921696
30
0
10
21.141212520632319
20
22.550648375189862
30
0
10
20.691235693897745
20
24.752590522076346
30
0
10
20.17304118405093
20
27.288352951882423
30
0
10
19.656181829105609
20
29.602470427508315
30
0
10
18.93371361344564
20
32.271994287740952
30
0
10
18.278066718606244
20
34.694613015766734
30
0
10
17.48719459454254
20
37.368988113916629
30
0
10
16.635324147465205
20
39.868678068285547
30
0
10
15.949719569470776
20
41.880485006960129
30
0
10
15.195467864763579
20
43.794566896819134
30
0
10
14.220041069407612
20
45.708912958076937
30
0
10
13.365763612077313
20
47.385494628221416
30
0
10
12.32278792940183
20
49.088128669971134
30
0
10
11.332816447097276
20
50.635258136543555
30
0
10
10.578939547049256
20
51.813418504878037
30
0
10
9.8763894231155955
20
52.884739335427717
30
0
10
9.3791764563897289
20
53.710086484034498
30
0
0
SPLINE
5
111
100
AcDbEntity
8
0
100
AcDbSpline
70
4
71
5
72
53
73
47
74
0
42
0.000000001
43
0.0000000001
44
0.0000000001
40
0.030410603948980028
40
0.030410603948980028
40
0.030410603948980028
40
0.030410603948980028
40
0.030410603948980028
40
0.030410603948980028
40
0.044444444444444446
40
0.066666666666666666
40
0.088888888888888892
40
0.11111111111111112
40
0.13333333333333333
40
0.15555555555555556
40
0.17777777777777778
40
0.20000000000000001
40
0.22222222222222224
40
0.24444444444444446
40
0.26666666666666666
40
0.28888888888888886
40
0.31111111111111106
40
0.33333333333333326
40
0.35555555555555546
40
0.37777777777777766
40
0.39999999999999986
40
0.42222222222222205
40
0.44444444444444425
40
0.46666666666666645
40
0.48888888888888865
40
0.51111111111111085
40
0.5333333333333331
40
0.55555555555555536
40
0.57777777777777761
40
0.59999999999999987
40
0.62222222222222212
40
0.64444444444444438
40
0.66666666666666663
40
0.68888888888888888
40
0.71111111111111114
40
0.73333333333333339
40
0.75555555555555565
40
0.7777777777777779
40
0.80000000000000016
40
0.82222222222222241
40
0.84444444444444466
40
0.86666666666666692
40
0.88888888888888917
40
0.91111111111111143
40
0.93333333333333368
40
0.95170965847069278
40
0.95170965847069278
40
0.95170965847069278
40
0.95170965847069278
40
0.95170965847069278
40
0.95170965847069278
41
1
41
1
41
1
41
1
41
1
41
1
41
1
41
1
41
1
41
1
41
1
41
1
41
1
41
1
41
1
41
1
41
1
41
1
41
1
41
1
41
1
41
1
41
1
41
1
41
1
41
1
41
1
41
1
41
1
41
1
41
1
41
1
41
1
41
1
41
1
41
1
41
1
41
1
41
1
41
1
41
1
41
1
41
1
41
1
41
1
41
1
41
1
10
22.490407944733253
20
0.65327225645208875
30
0
10
22.487882232240214
20
0.77102741634793426
30
0
10
22.480381376698912
20
1.0819585752735219
30
0
10
22.464224623437289
20
1.611341714172478
30
0
10
22.432961049832389
20
2.4030618386753617
30
0
10
22.377764858248327
20
3.5146564936525522
30
0
10
22.301250987783774
20
4.8197960200626522
30
0
10
22.210085766476688
20
6.2023790280297684
30
0
10
22.106996558687662
20
7.6279163683996014
30
0
10
21.99455658288872
20
9.0607652309756652
30
0
10
21.874567290963292
20
10.469765767376209
30
0
10
21.747533328724714
20
11.833276247712043
30
0
10
21.611876678909944
20
13.146013795237792
30
0
10
21.464026629624744
20
14.419783439058993
30
0
10
21.299790379953855
20
15.675166865021179
30
0
10
21.11546170024317
20
16.935192884703685
30
0
10
20.908937245594799
20
18.218677502799103
30
0
10
20.681071261894949
20
19.53261597437406
30
0
10
20.436184884528707
20
20.86839128003108
30
0
10
20.180094374942531
20
22.209348833124501
30
0
10
19.918603916491815
20
23.536245303194129
30
0
10
19.655802103860434
20
24.833571708291046
30
0
10
19.392471916308111
20
26.09540073467603
30
0
10
19.12435141742543
20
27.331763512709095
30
0
10
18.844128053073792
20
28.562658484391182
30
0
10
18.543494546455335
20
29.811839070181048
30
0
10
18.215246435577125
20
31.100523222280874
30
0
10
17.855207699347638
20
32.441535332151588
30
0
10
17.464652158014914
20
33.832179896494104
30
0
10
17.048516939965179
20
35.257925157387028
30
0
10
16.612920833364257
20
36.697884938484648
30
0
10
16.162904192392968
20
38.129689018568762
30
0
10
15.700139173734446
20
39.534500681437677
30
0
10
15.220492525338425
20
40.90221292717473
30
0
10
14.7120734049379
20
42.235916620656013
30
0
10
14.159950914074241
20
43.546229256639243
30
0
10
13.550305003106544
20
44.846441722757135
30
0
10
12.875016211883706
20
46.147143759071987
30
0
10
12.135579910259562
20
47.451580292125911
30
0
10
11.34857441970194
20
48.749426174389974
30
0
10
10.546180351741883
20
50.015584025025632
30
0
10
9.7688495087340375
20
51.216928972191155
30
0
10
9.0843981473704858
20
52.279070588829853
30
0
10
8.6209792344045049
20
53.022327401296124
30
0
10
8.3334297705936642
20
53.507571526646032
30
0
10
8.1721494823969252
20
53.7930972636333
30
0
10
8.1042897750228722
20
53.916491275154684
30
0
0
ENDSEC
0
SECTION
2
OBJECTS
0
DICTIONARY
5
C
100
AcDbDictionary
3
ACAD_GROUP
350
D
3
ACAD_MLINESTYLE
350
17
0
DICTIONARY
5
D
100
AcDbDictionary
0
DICTIONARY
5
1A
330
C
100
AcDbDictionary
0
DICTIONARY
5
17
100
AcDbDictionary
0
ENDSEC
0
EOF
